<?xml version="1.0" encoding="UTF-8"?>
<svg version="1.1" xmlns="http://www.w3.org/2000/svg" width="1500" height="1500">
<path d="M0 0 C22.34926471 4.70510836 22.34926471 4.70510836 32.4375 7.75 C33.57783691 8.09144043 34.71817383 8.43288086 35.89306641 8.78466797 C46.18625777 11.93505642 56.13317891 15.7089545 66 20 C67.11503906 20.47824219 68.23007812 20.95648438 69.37890625 21.44921875 C98.68427941 34.51125609 124.87459853 51.84957058 149.0925293 72.7890625 C152.34250507 75.59824551 155.64447259 78.31674724 159 81 C162.30738781 84.14605182 165.15329284 87.44161605 168 91 C169.66104558 92.67226886 171.32848135 94.33819948 173 96 C184.5978788 107.96960569 194.68404168 121.19241892 204 135 C204.58974609 135.86238281 204.58974609 135.86238281 205.19140625 136.7421875 C206.52934674 138.69917508 207.85933196 140.66136913 209.1875 142.625 C209.60410889 143.2348877 210.02071777 143.84477539 210.44995117 144.47314453 C212.93629555 148.17998548 215.05120535 151.93553002 216.99731445 155.95117188 C218.37666437 158.76965362 219.8655597 161.52513957 221.34863281 164.29003906 C227.06752037 174.95656471 231.71980206 185.67260747 236 197 C236.29003906 197.74507812 236.58007812 198.49015625 236.87890625 199.2578125 C238.5384358 203.54999886 239.89989445 207.88534234 241.15625 212.3125 C241.82416216 214.4399239 242.60067516 216.53321505 243.4140625 218.609375 C264.73550216 275.02837562 260.64047591 345.9512544 242.18359375 402.359375 C240.76269767 406.72992003 239.4694988 411.13384067 238.1875 415.546875 C234.84947542 425.2534991 230.43879323 434.51904673 225.97094727 443.74609375 C225.06132315 445.62743402 224.16033164 447.51274758 223.25976562 449.3984375 C219.84783134 456.49638129 216.20872959 463.34167241 212 470 C211.55325928 470.71591309 211.10651855 471.43182617 210.64624023 472.16943359 C204.82496303 481.43402582 198.73628392 490.37302799 192 499 C191.55092285 499.57911133 191.1018457 500.15822266 190.63916016 500.75488281 C184.09870726 509.18856603 177.58098144 517.46190955 170 525 C168.90941369 526.10082734 167.81961348 527.20243386 166.73046875 528.3046875 C149.78768819 545.40410394 149.78768819 545.40410394 145 547 C145 547.66 145 548.32 145 549 C143.09710093 550.62759889 141.1938158 552.13418618 139.1875 553.625 C138.29889282 554.29486938 138.29889282 554.29486938 137.39233398 554.97827148 C135.59976907 556.32551745 133.80033922 557.66316961 132 559 C131.06929687 559.69996094 130.13859375 560.39992188 129.1796875 561.12109375 C117.68394829 569.64853015 105.54534586 577.12673615 93 584 C92.22769043 584.42571289 91.45538086 584.85142578 90.65966797 585.29003906 C73.07699454 594.92541258 55.06381268 602.30215382 35.97216797 608.36816406 C34.20629027 608.93390948 32.44824541 609.52396908 30.69140625 610.1171875 C22.4897548 612.81276212 14.16695317 614.46776216 5.69921875 616.0703125 C2.8131286 616.61852138 0.04810471 617.2546222 -2.796875 618.015625 C-58.08831728 632.11771797 -125.6668448 621.09642168 -177.26245117 599.15356445 C-180.01279027 597.99461036 -182.78290747 596.89909626 -185.5625 595.8125 C-194.33979972 592.15433314 -202.65687465 587.54220985 -211 583 C-212.01175293 582.45158447 -212.01175293 582.45158447 -213.04394531 581.89208984 C-220.1039754 578.04297739 -226.78926811 573.89934982 -233.22265625 569.0625 C-235.71992003 567.20799188 -238.25993375 565.43874722 -240.83422852 563.69335938 C-250.71004905 556.98885978 -259.66092277 549.42219041 -268.4375 541.34375 C-270.65684276 539.31386333 -272.90672034 537.33504502 -275.1875 535.375 C-281.22091098 530.11731329 -286.77190222 524.43540374 -291.9765625 518.359375 C-293.51683186 516.56338525 -295.07798346 514.78528118 -296.6484375 513.015625 C-308.14550417 499.98138359 -318.1845049 485.97402461 -327 471 C-327.80730586 469.67239307 -328.61597596 468.34561507 -329.42578125 467.01953125 C-335.3151258 457.29947203 -340.38980079 447.38374346 -345 437 C-345.27827637 436.37996094 -345.55655273 435.75992187 -345.84326172 435.12109375 C-349.67351851 426.55907132 -352.94955168 417.86598043 -356 409 C-356.39960938 407.91074219 -356.79921875 406.82148437 -357.2109375 405.69921875 C-364.05429339 386.45500458 -367.77701317 366.25706999 -370 346 C-370.08991211 345.23123535 -370.17982422 344.4624707 -370.27246094 343.67041016 C-375.65012947 294.921545 -369.61181776 246.02597628 -353 200 C-352.45965949 198.47050298 -351.92050391 196.94058657 -351.3828125 195.41015625 C-350.27422248 192.26638789 -349.14629206 189.13025908 -348 186 C-347.34 186 -346.68 186 -346 186 C-345.92910156 185.21367188 -345.85820312 184.42734375 -345.78515625 183.6171875 C-344.72515969 178.73382025 -342.63383689 174.59166981 -340.4375 170.125 C-340.01275391 169.24585938 -339.58800781 168.36671875 -339.15039062 167.4609375 C-338.10703441 165.30388644 -337.05678116 163.15049712 -336 161 C-335.34 161 -334.68 161 -334 161 C-333.60554688 159.70449219 -333.60554688 159.70449219 -333.203125 158.3828125 C-324.76877814 134.66805803 -304.62477984 112.79840999 -287.55859375 94.76953125 C-284.99585014 92.06192898 -284.99585014 92.06192898 -282.8125 89.26171875 C-280.7840902 86.73057807 -278.5529084 84.99251387 -276 83 C-274.3291475 81.3375297 -272.66300502 79.67032029 -271 78 C-235.94419987 44.99046777 -192.49451376 20.60809085 -146.3125 7.125 C-145.334021 6.83906982 -144.35554199 6.55313965 -143.34741211 6.25854492 C-135.60130323 4.05529254 -128.08574491 2 -120 2 C-120.33 21.8 -120.66 41.6 -121 62 C-127.1094074 64.29102777 -132.97410487 66.16011395 -139.2421875 67.83984375 C-154.65167254 72.59724194 -170.10343754 79.86656043 -184 88 C-184.72960937 88.40992188 -185.45921875 88.81984375 -186.2109375 89.2421875 C-200.2120706 97.31792639 -213.44146064 106.72924579 -225.42089844 117.57226562 C-226.95905752 118.96298212 -228.51266327 120.33431202 -230.0703125 121.703125 C-244.4900012 134.49670894 -256.58607586 148.94494804 -267.484375 164.80859375 C-268.80526185 166.71843273 -270.17306725 168.57759476 -271.5625 170.4375 C-274.84066521 175.02480261 -277.36263891 180.02792581 -280 185 C-280.64829792 186.18438402 -281.29810152 187.36794481 -281.94921875 188.55078125 C-289.40370451 202.16642718 -295.12277299 216.28128541 -300 231 C-300.22574707 231.67369629 -300.45149414 232.34739258 -300.68408203 233.04150391 C-304.56677948 244.79816321 -306.710618 256.70941418 -308.59863281 268.93139648 C-309 271 -309 271 -310 273 C-316.99176683 321.22423236 -310.01161777 375.56513443 -286.95532227 418.86450195 C-286 421 -286 421 -286 424 C-285.34 424 -284.68 424 -284 424 C-283.63648438 424.75023437 -283.27296875 425.50046875 -282.8984375 426.2734375 C-271.94967047 448.56400421 -257.1598978 468.14486764 -240 486 C-239.48179687 486.54543457 -238.96359375 487.09086914 -238.4296875 487.65283203 C-231.06587482 495.37712692 -223.35898768 502.26226719 -214.80908203 508.6484375 C-212.96660867 510.02494661 -211.13763557 511.41821068 -209.30859375 512.8125 C-194.47219781 524.01640318 -177.90654519 534.52723305 -160.4375 541.078125 C-157.69097963 542.11687309 -155.00915525 543.27564322 -152.3125 544.4375 C-145.34026017 547.34780754 -138.2211695 549.78544691 -131 552 C-129.99283936 552.31283936 -128.98567871 552.62567871 -127.94799805 552.94799805 C-119.23024453 555.55944845 -110.54699027 557.28268528 -101.5625 558.6875 C-100.24011189 558.90093523 -98.91784552 559.11512609 -97.59570312 559.33007812 C-94.06550101 559.89900241 -90.53460166 560.45910866 -87 561 C-85.8951123 561.18103271 -84.79022461 561.36206543 -83.65185547 561.54858398 C-79.35721942 562.0794559 -75.139604 562.21716834 -70.81640625 562.2734375 C-69.93563919 562.2857843 -69.05487213 562.2981311 -68.14741516 562.31085205 C-65.28574154 562.34313228 -62.42432413 562.36194157 -59.5625 562.375 C-58.58645813 562.37989441 -57.61041626 562.38478882 -56.60479736 562.38983154 C-38.60376183 562.42705346 -21.6352141 560.56058047 -4 557 C-2.63343262 556.75008301 -2.63343262 556.75008301 -1.23925781 556.49511719 C3.53730967 555.60948107 8.04831262 554.43126392 12.6328125 552.82568359 C15.25095831 551.91246483 17.88724669 551.07358709 20.53125 550.23828125 C32.82866409 546.29380835 44.50145471 541.87946305 56 536 C57.97897164 534.99961409 59.95810672 533.99955137 61.9375 533 C62.68902344 532.608125 63.44054687 532.21625 64.21484375 531.8125 C66 531 66 531 68 531 C68 530.34 68 529.68 68 529 C69.01707031 528.47212891 69.01707031 528.47212891 70.0546875 527.93359375 C76.74137691 524.3864995 82.88698582 520.45186902 89 516 C89.85078125 515.40574219 90.7015625 514.81148437 91.578125 514.19921875 C99.91324314 508.3134555 108.55835749 501.80515649 115.56054688 494.33520508 C117 493 117 493 119 493 C119.3403125 492.1646875 119.3403125 492.1646875 119.6875 491.3125 C121.69401244 487.77721618 124.63677573 485.29523303 127.56640625 482.51171875 C142.46895929 468.02408598 154.5886051 449.79943175 164.8125 431.75 C165.16111084 431.13745361 165.50972168 430.52490723 165.86889648 429.89379883 C170.91947437 420.79891149 174.83894614 411.17402038 178.625 401.5 C179.0065625 400.54480469 179.388125 399.58960938 179.78125 398.60546875 C181.99312279 392.96900671 183.82717446 387.36408198 185.30224609 381.49023438 C186 379 186 379 187.00830078 376.49365234 C187.99884626 374.0029011 188.64021671 371.6227229 189.21875 369.0078125 C189.42790039 368.06284912 189.63705078 367.11788574 189.85253906 366.14428711 C190.06620117 365.14792236 190.27986328 364.15155762 190.5 363.125 C190.72139648 362.09576416 190.94279297 361.06652832 191.17089844 360.00610352 C192.85175616 352.02827322 194.18817489 344.1182511 195 336 C195.11085938 334.97390625 195.22171875 333.9478125 195.3359375 332.890625 C198.45425543 298.33629114 194.49213573 264.00001765 184 231 C183.66097656 229.84371094 183.32195313 228.68742188 182.97265625 227.49609375 C173.61768518 195.67416404 155.00453809 165.61167385 133 141 C132.52643066 140.47003418 132.05286133 139.94006836 131.56494141 139.39404297 C122.54085686 128.84870702 122.54085686 128.84870702 112 120 C112 119.34 112 118.68 112 118 C111.40848145 117.72309326 110.81696289 117.44618652 110.20751953 117.16088867 C108.12880396 116.06773533 106.4873016 114.91391629 104.6796875 113.42578125 C104.06778564 112.92691406 103.45588379 112.42804688 102.82543945 111.9140625 C102.18179443 111.38554688 101.53814941 110.85703125 100.875 110.3125 C83.43060609 96.22543903 64.48678902 85.07898076 44 76 C42.93652344 75.52046875 41.87304688 75.0409375 40.77734375 74.546875 C27.61908099 68.82746505 13.76622371 64.93320677 0 61 C0 40.87 0 20.74 0 0 Z " fill="#896929" transform="translate(805,465)"/>
<path d="M0 0 C33.66 0 67.32 0 102 0 C102 8.58 102 17.16 102 26 C119.16 26 136.32 26 154 26 C151.34940533 41.90356803 140.56892155 55.33976468 128 65 C119.85415452 70.62637725 109.91112828 76.19365102 99.8125 76.0625 C98.46091797 76.04896484 98.46091797 76.04896484 97.08203125 76.03515625 C96.39496094 76.02355469 95.70789063 76.01195312 95 76 C95.02320313 76.67160156 95.04640625 77.34320313 95.0703125 78.03515625 C95.2054494 85.5159492 94.77408429 92.8628106 94.125 100.3125 C94.04652832 101.22330322 93.96805664 102.13410645 93.88720703 103.07250977 C93.39413272 108.48165795 92.76315095 113.85756171 92.05078125 119.2421875 C90.7850838 128.99722508 90.06925729 138.795075 89.31152344 148.60015869 C88.14747855 163.61605241 86.9462937 178.60455903 85.14697266 193.55908203 C83.56416553 207.09090814 82.54481931 220.68032997 81.4453125 234.25830078 C80.77125739 242.50286134 80.08798093 250.72383085 79.00390625 258.92578125 C77.60238513 269.5793878 76.84617345 280.29061721 76 291 C74.17172966 314.13904643 74.17172966 314.13904643 72.99609375 323.01953125 C72.14633134 329.44373503 71.55091097 335.86482419 71.03515625 342.32421875 C70.95502289 343.32752228 70.87488953 344.33082581 70.79232788 345.36453247 C70.46487093 349.50491964 70.14218817 353.64564485 69.82543945 357.78686523 C68.73482156 371.95593082 67.19232208 385.95758567 65 400 C66.65128906 400.21039917 66.65128906 400.21039917 68.3359375 400.42504883 C73.78124382 401.27950621 77.51009713 403.93177882 82 407 C82.96486328 407.64775391 82.96486328 407.64775391 83.94921875 408.30859375 C92.51701998 414.7970185 97.25767313 425.62452196 99 436 C99.75702162 442.28008077 98.50445344 447.61052632 96.65625 453.6171875 C95.8672381 456.07013052 95.8672381 456.07013052 96 459 C98.02861274 460.65756214 100.01802606 462.11089793 102.1875 463.5625 C103.48062919 464.45491573 104.77226283 465.34950188 106.0625 466.24609375 C106.72121094 466.70226074 107.37992188 467.15842773 108.05859375 467.62841797 C111.00236572 469.70816029 113.84652537 471.90789531 116.6875 474.125 C120.578715 477.15020199 124.50100641 480.11794673 128.5 483 C132.44947783 485.8495511 136.33586058 488.77008745 140.1875 491.75 C147.05454166 497.06237549 153.99843789 502.26894834 160.95166016 507.46777344 C164.30362646 509.9751561 167.65168767 512.48774118 171 515 C174.93943345 517.95577118 178.87948292 520.91068244 182.82421875 523.859375 C184.11208235 524.82277874 185.39984181 525.78632173 186.6875 526.75 C187.33243408 527.23251221 187.97736816 527.71502441 188.6418457 528.2121582 C192.51767983 531.11844663 196.37468024 534.04789958 200.21875 536.99609375 C202.04158844 538.39333123 203.86450552 539.79046612 205.6875 541.1875 C206.57808105 541.87054199 207.46866211 542.55358398 208.38623047 543.25732422 C214.41918778 547.86051198 220.55161546 552.23414044 226.89453125 556.3984375 C227.58933594 556.92695312 228.28414062 557.45546875 229 558 C229 558.66 229 559.32 229 560 C229.763125 560.268125 230.52625 560.53625 231.3125 560.8125 C233.98100319 561.99160606 235.1886251 562.77180304 237 565 C239.06086361 572.86589166 238.08063313 581.92304174 238 590 C233.97827603 589.64311694 229.95837359 589.27026638 225.93945312 588.88305664 C224.57429513 588.75374118 223.20872787 588.62866891 221.84277344 588.50805664 C219.87070206 588.33316126 217.90015536 588.14133937 215.9296875 587.94921875 C214.74616699 587.83924561 213.56264648 587.72927246 212.34326172 587.6159668 C205.93985066 586.43619419 202.14362649 583.51365334 197.6640625 578.921875 C197.18101654 578.43221252 196.69797058 577.94255005 196.20028687 577.43804932 C194.66783802 575.8823839 193.14594738 574.31690476 191.625 572.75 C189.62110951 570.69925364 187.61278442 568.65293061 185.6015625 566.609375 C185.11443787 566.11356934 184.62731323 565.61776367 184.12542725 565.10693359 C180.84750926 561.79328178 177.44892534 558.69825727 173.90380859 555.67675781 C169.49736789 551.79583517 165.46766502 547.50350592 161.35546875 543.31640625 C158.01210291 539.9363673 154.65435723 536.64540295 151.046875 533.546875 C146.3692366 529.52300103 142.07453394 525.1466095 137.75 520.75 C136.18468099 519.15910388 134.61705731 517.57047132 133.046875 515.984375 C132.02352051 514.94361816 132.02352051 514.94361816 130.97949219 513.88183594 C129.03379451 511.94726353 129.03379451 511.94726353 126.74707031 510.37597656 C126.17053711 509.9219043 125.59400391 509.46783203 125 509 C125 508.34 125 507.68 125 507 C124.42797852 506.75467529 123.85595703 506.50935059 123.26660156 506.2565918 C120.61263203 504.78524527 118.85500817 503.06447599 116.734375 500.89453125 C115.92613281 500.07533203 115.11789062 499.25613281 114.28515625 498.41210938 C113.44855469 497.55423828 112.61195313 496.69636719 111.75 495.8125 C106.54726835 490.49950637 101.34069622 485.30383845 95.69238281 480.46313477 C93.70584857 478.74569396 91.83732059 476.9380981 90 475.0625 C89.4225 474.47597656 88.845 473.88945313 88.25 473.28515625 C87.63125 472.64900391 87.63125 472.64900391 87 472 C83.83590488 473.0876577 81.32837667 474.45666503 78.625 476.375 C71.4462801 480.95194475 60.80658751 484.23544619 52.30078125 482.6015625 C51.54152344 482.40304687 50.78226563 482.20453125 50 482 C48.98292969 481.76023437 47.96585938 481.52046875 46.91796875 481.2734375 C35.71291192 478.27324766 27.0576738 473.04775835 21 463 C18.24110818 458.1285853 16.12178157 453.67784555 15 448.1875 C13.9947489 444.88702241 13.29369887 444.16102092 10.20703125 442.46875 C8.00150179 441.63628319 5.77147366 440.86518935 3.51953125 440.16796875 C0.21807034 439.0723674 -2.64042871 437.74545921 -5.71704102 436.1574707 C-10.36916967 433.79882008 -15.13381792 431.6723019 -19.875 429.5 C-21.41220703 428.79037109 -21.41220703 428.79037109 -22.98046875 428.06640625 C-27.70115878 425.90100714 -32.42117165 423.80021567 -37.2578125 421.90625 C-40.95273074 420.45872966 -44.4583926 418.8086358 -47.98535156 416.99560547 C-51.69885153 415.16045607 -55.54492238 413.63523719 -59.375 412.0625 C-65.10689092 409.68223385 -70.70516941 407.21727036 -76.2109375 404.34765625 C-81.06486531 402.00227097 -86.06509158 399.98867012 -91.05078125 397.94140625 C-95.39551631 396.14606118 -99.6202111 394.23209794 -103.80712891 392.09594727 C-108.44047721 389.78030481 -113.1664786 387.65733752 -117.875 385.5 C-119.41220703 384.79037109 -119.41220703 384.79037109 -120.98046875 384.06640625 C-126.55686425 381.50849167 -132.15200014 379.07683044 -137.87255859 376.85864258 C-140.55965027 375.77412325 -143.11768804 374.52550416 -145.671875 373.16015625 C-148.13074648 371.89341058 -148.13074648 371.89341058 -151.328125 370.68359375 C-161.38509862 366.41472942 -165.90212955 361.13013936 -170 351 C-170 350.01 -170 349.02 -170 348 C-157.76442749 346.11760423 -149.0306016 346.58183174 -137.9375 352.4375 C-135.73856033 353.54612663 -133.53933888 354.65419454 -131.33984375 355.76171875 C-129.72891846 356.58808838 -129.72891846 356.58808838 -128.08544922 357.43115234 C-123.76517149 359.62786897 -119.3891387 361.69537287 -115 363.75 C-113.47248851 364.47230163 -111.94514161 365.19495144 -110.41796875 365.91796875 C-107.48595443 367.30179701 -104.55084724 368.6787798 -101.61328125 370.05078125 C-94.79817361 373.23696534 -88.02129782 376.4700664 -81.3125 379.875 C-74.95405541 383.09858353 -68.50103449 386.07570153 -62 389 C-54.93596467 392.17851479 -47.95139837 395.45457191 -41.04467773 398.9609375 C-32.1159239 403.48468865 -23.04986894 407.7253442 -14 412 C-13.21351074 412.37189453 -12.42702148 412.74378906 -11.61669922 413.12695312 C-2.43368946 417.46736778 6.76926291 421.76188767 16 426 C17.83466026 423.63749056 19.25619057 421.49747235 20.625 418.8125 C23.5518929 413.54180615 28.56573066 407.71713467 34 405 C33.55139058 391.09310799 32.6172348 377.24165769 31.5 363.375 C31.43428802 362.5461026 31.36857605 361.7172052 31.3008728 360.8631897 C31.11086252 358.47875682 30.91577353 356.09480009 30.71875 353.7109375 C30.66145218 352.99196793 30.60415436 352.27299835 30.54512024 351.53224182 C30.24452823 347.80908702 30.24452823 347.80908702 29.51048279 344.15512085 C28.86772732 341.44158035 28.67021535 338.79770893 28.45922852 336.01660156 C28.36565567 334.80723938 28.27208282 333.5978772 28.17567444 332.35186768 C28.02877419 330.39105255 28.02877419 330.39105255 27.87890625 328.390625 C27.77343159 327.02216509 27.66754374 325.65373698 27.56126404 324.28533936 C27.16824158 319.21389264 26.78223359 314.14191744 26.39685059 309.06988525 C26.07195225 304.79623174 25.74386886 300.52284503 25.411726 296.24974823 C25.25920917 294.27189388 25.11116002 292.29369657 24.96327209 290.31549072 C24.40346894 283.09729699 23.65165206 275.93571538 22.71994114 268.75860882 C21.96367274 262.88133895 21.43735477 257.00595264 21 251.09765625 C20.91878906 250.05081161 20.83757812 249.00396698 20.75390625 247.92539978 C20.49904158 244.6380285 20.2489267 241.35032585 20 238.0625 C18.68302683 220.40375879 18.68302683 220.40375879 16.78405762 202.80148315 C15.31666706 190.80462654 14.49129191 178.73072193 13.5 166.6875 C13.075001 161.54539783 12.64801748 156.40346636 12.21875 151.26171875 C12.11501068 150.01746124 12.01127136 148.77320374 11.90438843 147.49124146 C11.31417969 140.48814189 10.6703757 133.49426701 9.9453125 126.50390625 C8.86793095 116.10159011 8.11166904 105.68115883 7.375 95.25 C7.23983889 93.36586707 7.10442318 91.48175238 6.96875 89.59765625 C6.64291716 85.06530775 6.32046371 80.53273116 6 76 C5.32308105 76.01305176 4.64616211 76.02610352 3.94873047 76.03955078 C3.05557129 76.04970215 2.16241211 76.05985352 1.2421875 76.0703125 C0.35901855 76.08336426 -0.52415039 76.09641602 -1.43408203 76.10986328 C-5.40122679 75.94000456 -8.44794897 74.68421671 -12 73 C-12.93972656 72.57460938 -13.87945313 72.14921875 -14.84765625 71.7109375 C-23.82481179 67.46636585 -31.39744027 62.49691449 -37.61328125 54.67578125 C-39.02166952 52.90522893 -39.02166952 52.90522893 -40.9453125 51.15625 C-46.82753175 44.98327467 -53 34.67987697 -53 26 C-35.51 26 -18.02 26 0 26 C0 17.42 0 8.84 0 0 Z M70 84 C69.96892398 94.58332212 69.94885788 105.16663937 69.9375 115.75 C69.93664398 116.54192371 69.93578796 117.33384743 69.93490601 118.14976883 C69.90412555 150.44272601 70.31908357 182.71421597 71 215 C71.33 215 71.66 215 72 215 C72.05534912 214.05680908 72.11069824 213.11361816 72.16772461 212.1418457 C72.37555366 208.62864799 72.58650945 205.11566661 72.79956055 201.6027832 C72.89097654 200.08495413 72.98116079 198.56705034 73.07006836 197.04907227 C73.19838635 194.86193162 73.33119263 192.67510169 73.46484375 190.48828125 C73.543396 189.17384033 73.62194824 187.85939941 73.70288086 186.50512695 C74 183 74 183 74.48377991 180.74804688 C75.12171995 177.35203584 75.34801348 173.96873618 75.55664062 170.52612305 C75.60394821 169.79031509 75.6512558 169.05450714 75.69999695 168.29640198 C75.8552983 165.86836665 76.00579456 163.44005878 76.15625 161.01171875 C76.26423284 159.3083971 76.37251416 157.60509434 76.4810791 155.90180969 C76.76644802 151.41187774 77.04773936 146.92169925 77.32818604 142.43145752 C77.61085806 137.91703961 77.89739336 133.40286722 78.18359375 128.88867188 C78.79335678 119.25938241 79.39793188 109.62977335 80 100 C80.04851105 99.2242374 80.09702209 98.44847481 80.14700317 97.64920425 C80.43149324 93.09947935 80.71581903 88.54974422 81 84 C77.37 84 73.74 84 70 84 Z " fill="#896929" transform="translate(698,335)"/>
<path d="M0 0 C12.21 0 24.42 0 37 0 C41.56626506 14.84036145 41.56626506 14.84036145 43.125 22.4375 C44.16265494 27.42424666 45.36786496 32.16735017 47 37 C47.65048233 39.64292612 48.27585456 42.28322783 48.875 44.9375 C50.92694523 53.84056016 53.23408114 62.65854576 55.68530273 71.4609375 C57.59307629 78.35641505 59.2966349 85.28669662 60.9375 92.25 C63.3681408 102.47088598 65.93815093 112.63176779 68.76953125 122.75 C71.09552465 131.10865008 73.04796743 139.54779806 75 148 C77.18517882 147.19767197 77.18517882 147.19767197 77.68261719 145.04833984 C77.88532227 144.19449707 78.08802734 143.3406543 78.296875 142.4609375 C78.53035645 141.49921631 78.76383789 140.53749512 79.00439453 139.54663086 C79.25044434 138.49999268 79.49649414 137.45335449 79.75 136.375 C80.28275851 134.17551557 80.81664139 131.97630323 81.3515625 129.77734375 C81.62387695 128.65054199 81.89619141 127.52374023 82.17675781 126.36279297 C83.43898084 121.20684398 84.77698641 116.07157989 86.125 110.9375 C86.50132568 109.50168579 86.50132568 109.50168579 86.88525391 108.03686523 C87.58858138 105.35748932 88.29399367 102.67867108 89 100 C89.19335938 99.26394531 89.38671875 98.52789063 89.5859375 97.76953125 C91.27142652 91.35734477 92.99954449 84.96220188 94.84375 78.59375 C96.9247654 71.32842537 98.88176413 64.03400395 100.80557251 56.72567749 C101.39005614 54.50530376 101.97649862 52.28545392 102.56323242 50.06567383 C104.58620728 42.4054189 106.58834092 34.74015256 108.56811523 27.06860352 C115.06072898 1.93927102 115.06072898 1.93927102 117 0 C128.55 0 140.1 0 152 0 C152 60.72 152 121.44 152 184 C144.74 184 137.48 184 130 184 C129.67 132.52 129.34 81.04 129 28 C124.61724444 43.77078665 124.61724444 43.77078665 120.3125 59.5625 C120.01794922 60.64595703 119.72339844 61.72941406 119.41992188 62.84570312 C117.98347942 68.16861009 116.61240261 73.47829937 115.51635742 78.88256836 C115 81 115 81 114.06469727 83.80517578 C112.91750854 87.24753114 111.97116816 90.70611263 111.046875 94.21484375 C110.86611923 94.89903885 110.68536346 95.58323395 110.49913025 96.28816223 C109.91423245 98.50412399 109.33210522 100.72080321 108.75 102.9375 C108.34496447 104.47367409 107.93977126 106.00980662 107.53442383 107.54589844 C105.2327452 116.27559362 102.95467013 125.01127972 100.6875 133.75 C98.93096504 140.51708465 97.09936697 147.25185469 95.14453125 153.96484375 C92.2812094 163.93374618 89.68174244 173.98113076 87 184 C79.41 184 71.82 184 64 184 C59.7278481 168.19303797 59.7278481 168.19303797 58.4921875 162.02734375 C57.99795407 159.85854088 57.99795407 159.85854088 57.0625 157.25 C55.85760151 153.56442815 54.97789407 149.84034449 54.125 146.0625 C52.42798488 138.70665907 50.54287996 131.41725919 48.57275391 124.12939453 C44.26680689 108.12066909 40.23618428 92.04241149 36.24731445 75.95239258 C34.18926451 67.66530542 32.06551493 59.40180824 29.83105469 51.16040039 C28.93126352 47.7386035 28.1655086 44.30340007 27.4296875 40.84375 C26.80569461 38.16625324 25.88546026 35.6010395 25 33 C24.34 30.36 23.68 27.72 23 25 C22.67 77.47 22.34 129.94 22 184 C14.74 184 7.48 184 0 184 C0 123.28 0 62.56 0 0 Z " fill="#896929" transform="translate(1059,1160)"/>
<path d="M0 0 C1.3293457 -0.01836914 1.3293457 -0.01836914 2.68554688 -0.03710938 C17.48824004 -0.06950039 30.9359413 4.70473026 41.6875 15.1875 C44.30876294 18.36526123 46.54172853 21.67470963 48.6875 25.1875 C49.08839844 25.79980469 49.48929688 26.41210938 49.90234375 27.04296875 C55.42368569 36.48133818 55.6875 48.65116611 55.6875 59.1875 C48.4275 59.1875 41.1675 59.1875 33.6875 59.1875 C32.33027046 55.11581139 31.38370011 51.92853309 30.75 47.8125 C29.06472908 38.43580466 26.37458201 31.35122735 18.6875 25.1875 C8.30675208 19.82244999 -1.33316486 18.53551679 -12.5 21.75 C-21.31355892 25.00371022 -27.20335135 30.79602019 -31.3125 39.1875 C-32.55355566 42.13570915 -33.46924773 45.10360598 -34.3125 48.1875 C-34.56902344 49.074375 -34.82554687 49.96125 -35.08984375 50.875 C-42.97456824 81.00170851 -44.52217844 124.76335663 -30.74609375 153.44921875 C-26.4854673 160.69524935 -21.085385 166.48208066 -13.0546875 169.3515625 C-3.8904629 171.39868574 8.31196234 171.93933565 16.6875 167.1875 C26.16840117 161.16060743 30.13801167 151.0775413 33.14453125 140.63671875 C35.24385783 131.16709454 35.17145097 121.99243149 35.6875 112.1875 C21.4975 112.1875 7.3075 112.1875 -7.3125 112.1875 C-7.3125 105.5875 -7.3125 98.9875 -7.3125 92.1875 C14.1375 92.1875 35.5875 92.1875 57.6875 92.1875 C57.6875 123.8675 57.6875 155.5475 57.6875 188.1875 C51.7475 188.1875 45.8075 188.1875 39.6875 188.1875 C39.06982769 183.24612152 38.56424251 179.04809919 38.625 174.1875 C38.63402344 173.23875 38.64304687 172.29 38.65234375 171.3125 C38.66394531 170.61125 38.67554688 169.91 38.6875 169.1875 C38.0275 169.1875 37.3675 169.1875 36.6875 169.1875 C36.5225 170.0125 36.3575 170.8375 36.1875 171.6875 C34.10714221 176.54166819 30.75011131 179.85277322 26.6875 183.1875 C26.0275 183.1875 25.3675 183.1875 24.6875 183.1875 C24.6875 183.8475 24.6875 184.5075 24.6875 185.1875 C22.31668558 186.34274418 19.94146043 187.48675208 17.5625 188.625 C16.89734375 188.95048828 16.2321875 189.27597656 15.546875 189.61132812 C4.82026966 194.7117238 -10.04561735 195.0817581 -21.3125 191.1875 C-22.39015625 190.81882812 -23.4678125 190.45015625 -24.578125 190.0703125 C-40.53817848 183.95574655 -48.75943841 173.4848162 -55.55078125 158.4453125 C-69.49232869 123.02624604 -70.4547557 69.31753323 -55.3125 34.1875 C-52.41590401 27.74830459 -49.22919126 21.3493049 -44.3125 16.1875 C-43.6525 16.1875 -42.9925 16.1875 -42.3125 16.1875 C-41.9825 15.1975 -41.6525 14.2075 -41.3125 13.1875 C-29.10351393 3.35507229 -15.30696116 0.01098849 0 0 Z " fill="#896929" transform="translate(532.3125,1155.8125)"/>
<path d="M0 0 C7.92 0 15.84 0 24 0 C24 25.08 24 50.16 24 76 C46.44 76 68.88 76 92 76 C92 50.92 92 25.84 92 0 C99.92 0 107.84 0 116 0 C116 60.72 116 121.44 116 184 C108.08 184 100.16 184 92 184 C92 154.96 92 125.92 92 96 C69.56 96 47.12 96 24 96 C24 125.04 24 154.08 24 184 C16.08 184 8.16 184 0 184 C0 123.28 0 62.56 0 0 Z " fill="#896929" transform="translate(620,1160)"/>
<path d="M0 0 C29.37 0 58.74 0 89 0 C89 6.93 89 13.86 89 21 C67.55 21 46.1 21 24 21 C24 39.15 24 57.3 24 76 C54.195 76.495 54.195 76.495 85 77 C85 83.93 85 90.86 85 98 C82.34092416 99.32953792 80.33434632 99.11986031 77.35693359 99.11352539 C76.15931396 99.11340454 74.96169434 99.11328369 73.7277832 99.11315918 C72.46409912 99.10804321 71.20041504 99.10292725 69.8984375 99.09765625 C68.74061768 99.09664917 67.58279785 99.09564209 66.38989258 99.09460449 C62.05158502 99.08935985 57.71329155 99.07539867 53.375 99.0625 C43.68125 99.041875 33.9875 99.02125 24 99 C24 127.05 24 155.1 24 184 C16.08 184 8.16 184 0 184 C0 123.28 0 62.56 0 0 Z " fill="#896929" transform="translate(951,1160)"/>
<path d="M0 0 C38.28 0 76.56 0 116 0 C116 6.93 116 13.86 116 21 C101.15 21 86.3 21 71 21 C71 74.79 71 128.58 71 184 C63.41 184 55.82 184 48 184 C48 130.21 48 76.42 48 21 C32.16 21 16.32 21 0 21 C0 14.07 0 7.14 0 0 Z " fill="#896929" transform="translate(754,1160)"/>
<path d="M0 0 C7.26 0 14.52 0 22 0 C22 53.46 22 106.92 22 162 C46.42 162 70.84 162 96 162 C101.19080383 167.19080383 97 176.65909482 97 184 C64.99 184 32.98 184 0 184 C0 123.28 0 62.56 0 0 Z " fill="#896929" transform="translate(299,1160)"/>
<path d="M0 0 C7.59 0 15.18 0 23 0 C24.66749941 1.66749941 24.12214776 3.69195751 24.12908131 5.91876131 C24.12471205 6.98245736 24.12471205 6.98245736 24.12025452 8.06764221 C24.12110894 8.81578672 24.12196337 9.56393123 24.12284368 10.33474678 C24.12450073 12.86063947 24.11897348 15.38646686 24.11352539 17.91235352 C24.11324354 19.71543374 24.11340121 21.51851408 24.1139679 23.32159424 C24.11425596 28.23254539 24.10835784 33.14347234 24.10139394 38.05441785 C24.09516184 43.18072212 24.09455672 48.30702688 24.09336853 53.43333435 C24.09025479 63.14790626 24.08204083 72.86246697 24.07201904 82.57703394 C24.06085923 93.63367717 24.05534779 104.69032093 24.05032361 115.74696839 C24.03985825 138.49798535 24.02205762 161.24899158 24 184 C16.08 184 8.16 184 0 184 C0 123.28 0 62.56 0 0 Z " fill="#896929" transform="translate(417,1160)"/>
<path d="M0 0 C0.99 0 1.98 0 3 0 C6.57850188 12.30110023 4.94979093 23.5887872 -0.5078125 35.2109375 C-8.7509735 49.8185856 -20.10879261 63.20990832 -32 75 C-32.825 75.99 -33.65 76.98 -34.5 78 C-37.77008896 81.92410675 -41.22870207 85.4060745 -45.1875 88.625 C-48.11880346 90.87722335 -48.11880346 90.87722335 -50 94 C-50.66 94 -51.32 94 -52 94 C-52 94.66 -52 95.32 -52 96 C-52.66 96 -53.32 96 -54 96 C-54.26031006 96.58773193 -54.52062012 97.17546387 -54.78881836 97.78100586 C-56.0794003 100.14546852 -57.44194521 101.64153336 -59.37890625 103.50390625 C-60.04841309 104.15641357 -60.71791992 104.8089209 -61.40771484 105.48120117 C-62.11879395 106.16802979 -62.82987305 106.8548584 -63.5625 107.5625 C-69.85872777 113.75469828 -75.61193266 119.99450156 -81 127 C-81.84872717 128.05982342 -82.69906528 129.11835825 -83.55078125 130.17578125 C-91.35814241 139.9537504 -96.85507283 149.31144265 -100.23828125 161.4453125 C-101 164 -101 164 -102 165 C-102.23527773 167.34987262 -102.41386417 169.70556039 -102.5625 172.0625 C-102.64628906 173.35285156 -102.73007812 174.64320313 -102.81640625 175.97265625 C-102.87699219 176.97167969 -102.93757812 177.97070312 -103 179 C-106 178 -106 178 -107.1328125 176.29296875 C-107.46023438 175.59816406 -107.78765625 174.90335938 -108.125 174.1875 C-108.45757813 173.50042969 -108.79015625 172.81335938 -109.1328125 172.10546875 C-113.42016097 161.69609565 -111.78946855 147.31419258 -108 137 C-99.16695155 116.33601999 -84.26456685 98.95740893 -69.265625 82.51171875 C-67.98482319 81.09179537 -66.71136717 79.66491261 -65.46337891 78.21606445 C-61.13642357 73.194955 -56.58977777 68.46934572 -51.875 63.8125 C-51.18535156 63.12736328 -50.49570312 62.44222656 -49.78515625 61.73632812 C-46.9713495 58.94135182 -44.1529103 56.15111925 -41.33203125 53.36328125 C-37.24133299 49.21776626 -33.35760873 44.88008286 -29.4375 40.57421875 C-28.07853082 39.08599978 -26.71138275 37.60526133 -25.34375 36.125 C-19.96068383 30.27673058 -14.85074404 24.29726637 -10 18 C-9.52820313 17.40832031 -9.05640625 16.81664063 -8.5703125 16.20703125 C-4.78499775 11.25790854 -2.4269516 5.71108184 0 0 Z " fill="#BC1224" transform="translate(779,58)"/>
<path d="M0 0 C1.32 0 2.64 0 4 0 C6.86434279 5.72868558 5.558677 14.99764782 4 21.0625 C0.29377748 31.6123055 -7.02670209 40.64534603 -13.8984375 49.3203125 C-16.05600153 52.00059816 -16.05600153 52.00059816 -18 55 C-18.66 55 -19.32 55 -20 55 C-20.22727783 55.54438721 -20.45455566 56.08877441 -20.6887207 56.6496582 C-22.38606924 59.69199192 -24.60997701 62.08423063 -26.98046875 64.60546875 C-27.76081734 65.4427375 -27.76081734 65.4427375 -28.55693054 66.29692078 C-36.27080224 74.50091052 -44.31700751 82.3850198 -52.3125 90.3125 C-55.49908006 93.47227258 -58.68216947 96.63550459 -61.86328125 99.80078125 C-62.57696365 100.50616531 -63.29064606 101.21154938 -64.0259552 101.93830872 C-68.0001709 105.89326104 -71.79127043 109.94532727 -75.44200134 114.20141602 C-76.99088692 115.98947969 -78.58391211 117.72481204 -80.203125 119.44921875 C-80.7084375 119.98740234 -81.21375 120.52558594 -81.734375 121.08007812 C-82.7579971 122.16569795 -83.78410532 123.24897822 -84.8125 124.33007812 C-87.11049862 126.78502768 -88.99526614 128.99209957 -90.734375 131.89453125 C-91.15203125 132.58933594 -91.5696875 133.28414062 -92 134 C-92.66 134 -93.32 134 -94 134 C-94.26167969 134.721875 -94.52335938 135.44375 -94.79296875 136.1875 C-96.03429999 139.07992231 -97.53161247 141.40961814 -99.3125 144 C-104.65250774 152.26084705 -108.41862399 161.11660777 -109 171 C-110.875 170.375 -110.875 170.375 -113 169 C-117.61293389 158.12198214 -115.67749904 145.77093229 -111.63574219 135.06347656 C-109.07823646 128.75417217 -106.08711922 122.46704865 -102 117 C-101.34 117 -100.68 117 -100 117 C-99.75894531 116.29617187 -99.51789062 115.59234375 -99.26953125 114.8671875 C-94.4747021 104.03825028 -84.25658375 94.47388194 -76.46630859 85.66162109 C-75.22631597 84.25646129 -73.99673884 82.84212065 -72.76953125 81.42578125 C-67.17200574 75.0487164 -61.16172896 69.09760364 -55.11425781 63.15087891 C-51.78928592 59.86638095 -48.58987893 56.58003471 -45.60546875 52.98046875 C-44.74566406 51.99691406 -43.88585937 51.01335937 -43 50 C-42.34 50 -41.68 50 -41 50 C-40.67 49.01 -40.34 48.02 -40 47 C-38.37897032 45.28891311 -36.70496537 43.62746694 -35 42 C-34.2265625 41.2265625 -33.453125 40.453125 -32.65625 39.65625 C-30.92313746 37.92313746 -29.17877973 36.20117665 -27.421875 34.4921875 C-21.13563116 28.33460947 -15.41761723 21.95190336 -10 15 C-9.4225 14.26652344 -8.845 13.53304687 -8.25 12.77734375 C-5.1024174 8.69335533 -2.45586481 4.53390426 0 0 Z " fill="#BC1224" transform="translate(778,24)"/>
<path d="M0 0 C0.99 0 1.98 0 3 0 C7.19689812 13.90222502 4.43876745 27.40653487 -1.57421875 40.40234375 C-5.70261839 47.72568204 -10.8160741 54.39792061 -16 61 C-16.70769531 61.93972656 -17.41539062 62.87945312 -18.14453125 63.84765625 C-18.75683594 64.55792969 -19.36914062 65.26820313 -20 66 C-20.66 66 -21.32 66 -22 66 C-22.26901123 66.59047119 -22.53802246 67.18094238 -22.81518555 67.78930664 C-24.00345904 70.00645408 -25.23604532 71.5473388 -26.95703125 73.37109375 C-27.56474365 74.01739746 -28.17245605 74.66370117 -28.79858398 75.32958984 C-29.79547241 76.37300537 -29.79547241 76.37300537 -30.8125 77.4375 C-31.85482788 78.53892334 -31.85482788 78.53892334 -32.91821289 79.66259766 C-39.64982809 86.72950404 -46.56867509 93.60979648 -53.55200195 100.42749023 C-68.00847126 114.68091533 -82.76631256 132.41995404 -84.25 153.5625 C-83.98015377 157.2728857 -83.05431265 160.4416948 -82 164 C-81.875 166.9375 -81.875 166.9375 -82 169 C-86.02877696 168.48741007 -87.52037303 166.66687673 -90 163.5625 C-97.95202589 153.014197 -99.57215652 142.97322438 -98 130 C-95.68476317 119.85970792 -89.81485898 111.44262647 -84 103 C-83.46503906 102.195625 -82.93007813 101.39125 -82.37890625 100.5625 C-81.31534865 98.9971452 -80.16921654 97.48809378 -79 96 C-78.34 96 -77.68 96 -77 96 C-76.73703125 95.41863281 -76.4740625 94.83726562 -76.203125 94.23828125 C-74.94085206 91.88996178 -73.53551439 90.16202155 -71.75 88.1875 C-68.83249008 84.941085 -66.01854082 81.63371585 -63.26171875 78.25 C-62 77 -62 77 -60 77 C-60 76.34 -60 75.68 -60 75 C-59.34 75 -58.68 75 -58 75 C-57.773125 74.443125 -57.54625 73.88625 -57.3125 73.3125 C-55.12498525 69.45830734 -51.97748875 66.75755378 -48.5 64.0625 C-46.42100476 62.34732893 -44.97235432 60.82846861 -43.3125 58.75 C-42.549375 57.8425 -41.78625 56.935 -41 56 C-40.34 56 -39.68 56 -39 56 C-38.67 55.01 -38.34 54.02 -38 53 C-36.38404565 51.28411915 -34.70800367 49.624278 -33 48 C-18.84604251 34.39354517 -5.01187608 19.52387548 0 0 Z " fill="#BC1224" transform="translate(780,95)"/>
<path d="M0 0 C1.89575195 0.30371094 1.89575195 0.30371094 4 1 C5.3037344 3.4548067 6.27214561 5.65193894 7.1875 8.25 C7.44724609 8.97364746 7.70699219 9.69729492 7.97460938 10.44287109 C12.41793511 23.50016358 12.29027072 37.55077574 6.35205078 50.12084961 C4.66656553 53.47163228 2.86083698 56.74397374 1 60 C0.44054687 61.00160156 -0.11890625 62.00320312 -0.6953125 63.03515625 C-4.53736401 69.48497702 -9.24227712 74.82465372 -14.38671875 80.23828125 C-16.43738156 82.40542416 -18.39216694 84.59490834 -20.3125 86.875 C-24.21534359 91.40003605 -28.53109446 95.50952081 -32.78930664 99.6953125 C-37.10827097 103.98698938 -40.92282004 108.40433493 -44.546875 113.3046875 C-45.02640625 113.86414063 -45.5059375 114.42359375 -46 115 C-46.66 115 -47.32 115 -48 115 C-48.26296875 115.5671875 -48.5259375 116.134375 -48.796875 116.71875 C-50.09021364 119.17105444 -51.60123354 121.27193722 -53.25 123.5 C-58.53699795 130.97243761 -62.96039991 139.02575961 -65 148 C-66.32 147.67 -67.64 147.34 -69 147 C-69.08789644 143.16681381 -69.14069087 139.33389072 -69.1875 135.5 C-69.21263672 134.42234375 -69.23777344 133.3446875 -69.26367188 132.234375 C-69.4404801 112.90334261 -56.39147637 97.40161957 -43.72265625 83.90234375 C-41.27926638 81.29769716 -38.88071997 78.66180676 -36.5 76 C-33.6755017 72.8426144 -30.81054031 69.7304086 -27.9128418 66.64013672 C-19.44553547 57.5597664 -12.03810088 47.87596764 -6 37 C-5.60941406 36.31292969 -5.21882812 35.62585938 -4.81640625 34.91796875 C-0.40701516 26.72909957 0.30007299 18.61536471 0.125 9.4375 C0.11597656 8.52419922 0.10695313 7.61089844 0.09765625 6.66992188 C0.07437253 4.44632681 0.0416771 2.22331323 0 0 Z " fill="#BC1224" transform="translate(832,143)"/>
<path d="M0 0 C0.66 0 1.32 0 2 0 C7.15232733 7.728491 5.92355395 20.07560434 5 29 C3.82969244 34.38203387 1.56402324 39.1371973 -1 44 C-1.70189453 45.36318359 -1.70189453 45.36318359 -2.41796875 46.75390625 C-11.52672704 63.05781815 -26.38917851 76.56455026 -39.59350586 89.55688477 C-54.91668017 104.70040456 -69.75895111 122.00738102 -76 143 C-76.99 143 -77.98 143 -79 143 C-82.43784815 136.12430371 -80.97086045 123.24793088 -79.1640625 115.953125 C-72.0893187 94.96630112 -55.62659759 78.46332003 -40.1875 63.1875 C-35.35536184 58.40403085 -30.79280264 53.47797023 -26.53515625 48.17578125 C-25.39223823 46.75458753 -24.20094582 45.3725095 -23 44 C-22.34 44 -21.68 44 -21 44 C-20.73703125 43.42636719 -20.4740625 42.85273438 -20.203125 42.26171875 C-18.92697422 39.86272101 -17.45768254 37.92402639 -15.75 35.8125 C-7.3313611 25.05340963 -0.84096751 14.01612512 0 0 Z " fill="#BC1224" transform="translate(843,187)"/>
<path d="M0 0 C5.69531955 1.34007519 8.04621453 5.31415184 11 10 C11.49242187 10.76054687 11.98484375 11.52109375 12.4921875 12.3046875 C17.75383748 21.84700187 17.6604972 33.35106351 15.06640625 43.73828125 C8.61080234 60.34661535 -4.00661054 73.63944754 -16.24072266 86.18457031 C-19.95113304 90.01340901 -23.48934636 93.98876535 -27 98 C-28.26263672 99.40958984 -28.26263672 99.40958984 -29.55078125 100.84765625 C-37.45890585 109.83582227 -43.59190297 118.75708925 -44 131 C-45.32 130.67 -46.64 130.34 -48 130 C-52.12607606 117.52353191 -52.67845778 105.41362415 -46.7109375 93.40625 C-39.14336573 80.29452137 -28.40500308 68.84079394 -18.1875 57.75 C-4.7489094 42.88022376 1.75001187 29.05746031 1 9 C0.76482755 5.97065998 0.42251177 3.01039634 0 0 Z " fill="#BC1224" transform="translate(813,120)"/>
<path d="M0 0 C23.1 0 46.2 0 70 0 C70 9.57 70 19.14 70 29 C46.9 29 23.8 29 0 29 C0 19.43 0 9.86 0 0 Z " fill="#C4261D" transform="translate(522,768)"/>
<path d="M0 0 C1.21042969 -0.00128906 2.42085937 -0.00257813 3.66796875 -0.00390625 C4.94285156 -0.00003906 6.21773437 0.00382813 7.53125 0.0078125 C9.44357422 0.00201172 9.44357422 0.00201172 11.39453125 -0.00390625 C13.21017578 -0.00197266 13.21017578 -0.00197266 15.0625 0 C16.18205078 0.00112793 17.30160156 0.00225586 18.45507812 0.00341797 C21.03125 0.1328125 21.03125 0.1328125 22.03125 1.1328125 C22.12550595 3.28024799 22.14867648 5.43082276 22.14477539 7.58032227 C22.14492142 8.25346466 22.14506744 8.92660706 22.1452179 9.62014771 C22.14451878 11.85487034 22.13672652 14.0895106 22.12890625 16.32421875 C22.12704206 17.86978612 22.12561816 19.41535407 22.12461853 20.96092224 C22.1207934 25.03638327 22.11096317 29.11180887 22.09991455 33.18725586 C22.08970032 37.34293132 22.08512089 41.49861249 22.08007812 45.65429688 C22.06934089 53.81382018 22.05174414 61.97330786 22.03125 70.1328125 C12.46125 70.1328125 2.89125 70.1328125 -6.96875 70.1328125 C-6.99130299 61.15360144 -7.00966622 52.17440905 -7.02056217 43.19517612 C-7.02579051 39.02618422 -7.03288726 34.85721263 -7.04418945 30.68823242 C-7.05502008 26.66823564 -7.06102721 22.64825845 -7.06362724 18.62824821 C-7.06548118 17.09118275 -7.06910119 15.55411841 -7.07448006 14.01706123 C-7.08169284 11.87145763 -7.08274084 9.72593595 -7.08227539 7.58032227 C-7.084496 6.35676529 -7.08671661 5.13320831 -7.08900452 3.87257385 C-6.8705407 -1.10469222 -4.40993609 0.00444294 0 0 Z " fill="#C4261D" transform="translate(739.96875,941.8671875)"/>
<path d="M0 0 C22.77 0 45.54 0 69 0 C69 9.57 69 19.14 69 29 C46.23 29 23.46 29 0 29 C0 19.43 0 9.86 0 0 Z " fill="#C4261D" transform="translate(913,768)"/>
<path d="M0 0 C5.33747113 0.59305235 5.33747113 0.59305235 7.6809082 2.0324707 C9.7839869 5.16937821 9.36607657 8.52306267 9.29296875 12.16796875 C9.28872391 12.96278152 9.28447906 13.7575943 9.28010559 14.57649231 C9.2633193 17.11384021 9.22566824 19.65039238 9.1875 22.1875 C9.17245305 23.90819165 9.15876466 25.62889576 9.14648438 27.34960938 C9.11341607 31.56671262 9.06163495 35.78322142 9 40 C5.60563431 40.2560009 2.20984604 40.47502609 -1.1875 40.6875 C-2.14720703 40.76033203 -3.10691406 40.83316406 -4.09570312 40.90820312 C-13.00370763 41.43220339 -13.00370763 41.43220339 -17 38 C-20.87546456 33.37097288 -21.59754037 29.83566459 -22 24 C-22.61875 24.78375 -23.2375 25.5675 -23.875 26.375 C-27.47001069 30.05337326 -32.09060538 30.36130206 -37 31 C-31.42169984 31.12469099 -31.42169984 31.12469099 -26 30 C-24.68 32.31 -23.36 34.62 -22 37 C-26.77570613 41.24507211 -30.76947043 41.61398618 -37.0859375 41.38671875 C-41.39520442 40.81484553 -43.57755186 39.69426769 -47 37 C-51.13151776 31.4068604 -50.7490767 25.69119077 -50 19 C-48.26339347 15.1260316 -46.81803132 13.5985595 -43.4375 11.125 C-37.69555036 9.24581648 -31.72245644 8.8994325 -26.0625 11.1875 C-23.70693945 13.25753806 -21.84654347 15.46955154 -20 18 C-19.29875 17.05125 -18.5975 16.1025 -17.875 15.125 C-15.22691954 11.97854485 -13.13452578 10.74421464 -9 10 C-5.68953624 10.27587198 -2.97964402 10.51017799 0 12 C0 8.04 0 4.08 0 0 Z M-37 19 C-37.33 19.99 -37.66 20.98 -38 22 C-35.39417629 22.93065133 -34.35801776 23.14917407 -31.75 22.0625 C-31.1725 21.711875 -30.595 21.36125 -30 21 C-30.33 20.34 -30.66 19.68 -31 19 C-32.98 19 -34.96 19 -37 19 Z M-9.8125 21.0625 C-12.32932535 23.81586439 -12.32932535 23.81586439 -11.9375 27.1875 C-11.20031442 30.09782797 -11.20031442 30.09782797 -9 32 C-5.40320934 31.67673447 -5.40320934 31.67673447 -2 31 C-1.34 28.36 -0.68 25.72 0 23 C-0.66 23 -1.32 23 -2 23 C-2.33 22.01 -2.66 21.02 -3 20 C-6.13735422 18.20722616 -6.88480955 18.915527 -9.8125 21.0625 Z " fill="#C74D81" transform="translate(568,1401)"/>
<path d="M0 0 C0.85722656 0.01546875 1.71445312 0.0309375 2.59765625 0.046875 C4.9375 0.25 4.9375 0.25 7.9375 1.25 C9.49868428 1.31740865 11.0625252 1.33514456 12.625 1.3125 C13.43324219 1.30347656 14.24148438 1.29445313 15.07421875 1.28515625 C15.68910156 1.27355469 16.30398438 1.26195312 16.9375 1.25 C17.06206859 5.51829471 17.1522864 9.78559796 17.2121582 14.05517578 C17.23714236 15.50425674 17.27114269 16.95321375 17.31469727 18.40185547 C17.73845977 32.86960596 17.73845977 32.86960596 13.41088867 38.8671875 C9.92282794 42.14082064 6.67361133 42.54481925 2 42.5625 C0.98035156 42.57925781 -0.03929687 42.59601563 -1.08984375 42.61328125 C-4.49544454 42.19709088 -6.32225692 41.28492834 -9.0625 39.25 C-11.74177341 35.23108988 -11.21851248 33.00838077 -11.0625 28.25 C-9.0625 28.25 -9.0625 28.25 -7.5625 29.6875 C-7.0675 30.203125 -6.5725 30.71875 -6.0625 31.25 C-2.80946956 32.87651522 0.32975602 32.36453156 3.9375 32.25 C4.2675 31.92 4.5975 31.59 4.9375 31.25 C4.35742188 31.22421875 3.77734375 31.1984375 3.1796875 31.171875 C-2.27844798 30.77557473 -5.77679889 29.92345809 -10.0625 26.25 C-13.96709397 20.83575395 -13.859268 15.71170091 -13.0625 9.25 C-10.16019485 3.34173595 -6.74891823 -0.20358728 0 0 Z M-3.0625 11.25 C-4.00147436 13.99469429 -4.2050101 15.67995959 -3.5 18.5 C-2.0958822 20.53235315 -2.0958822 20.53235315 0.875 21.1875 C3.85920785 21.52648531 3.85920785 21.52648531 5.75 20.125 C7.185192 17.85890736 7.58051497 15.89168921 7.9375 13.25 C7.2775 13.25 6.6175 13.25 5.9375 13.25 C5.2775 11.93 4.6175 10.61 3.9375 9.25 C-0.10872502 8.88019987 -0.10872502 8.88019987 -3.0625 11.25 Z " fill="#C74D81" transform="translate(696.0625,1410.75)"/>
<path d="M0 0 C2.67691981 1.70349443 4.71290518 3.32115617 6.75 5.75 C6.75 6.41 6.75 7.07 6.75 7.75 C7.41 7.75 8.07 7.75 8.75 7.75 C10.73990141 14.19028904 11.27572247 18.68899013 8.09375 24.7734375 C5.99845562 27.85546935 3.82891287 29.6332474 0.75 31.75 C0.13125 32.183125 -0.4875 32.61625 -1.125 33.0625 C-6.25321695 34.72162901 -10.69777947 34.27546357 -15.5 32.0625 C-18.93219394 30.15796885 -21.08914599 28.07439078 -23.25 24.75 C-23.6625 24.151875 -24.075 23.55375 -24.5 22.9375 C-26.16785687 18.07291745 -25.58460074 13.84674688 -24.125 9.0625 C-21.49710191 4.41988005 -18.5808182 2.03808374 -13.875 -0.5625 C-8.82775706 -1.88439696 -4.80487317 -1.84802814 0 0 Z " fill="#FEFDFD" transform="translate(762.25,759.25)"/>
<path d="M0 0 C0.66 1.32 1.32 2.64 2 4 C2.66 4 3.32 4 4 4 C4 3.34 4 2.68 4 2 C6.70879335 0.64560332 9.00933268 0.93498549 12 1 C12.06058594 2.19238281 12.12117187 3.38476562 12.18359375 4.61328125 C12.26801149 6.17969925 12.35265887 7.74610488 12.4375 9.3125 C12.47681641 10.09818359 12.51613281 10.88386719 12.55664062 11.69335938 C12.59853516 12.45068359 12.64042969 13.20800781 12.68359375 13.98828125 C12.72025146 14.68477783 12.75690918 15.38127441 12.79467773 16.09887695 C12.95581153 18.2216572 12.95581153 18.2216572 14 21 C15.32 21 16.64 21 18 21 C18.86419223 18.40742331 19.17580932 16.65962293 19.31640625 13.98828125 C19.37924805 12.85229492 19.37924805 12.85229492 19.44335938 11.69335938 C19.48267578 10.90767578 19.52199219 10.12199219 19.5625 9.3125 C19.62727539 8.11657227 19.62727539 8.11657227 19.69335938 6.89648438 C19.79927368 4.93118553 19.90012551 2.96561504 20 1 C22.97 1 25.94 1 29 1 C29.11681812 4.54138618 29.187455 8.0822724 29.25 11.625 C29.30027344 13.12353516 29.30027344 13.12353516 29.3515625 14.65234375 C29.43276635 20.7832342 29.16258641 24.37324029 25 29 C21.54916005 31.30055997 20.12824272 31.27010256 16.0625 31.25 C15.02222656 31.25515625 13.98195313 31.2603125 12.91015625 31.265625 C10.02539083 31.00231755 8.40372491 30.57166629 6 29 C1.9354996 23.43012909 2.28566409 16.63922749 2 10 C0.68 10 -0.64 10 -2 10 C-3.32 10 -4.64 10 -6 10 C-7.11823815 12.23647631 -7.19396061 13.64891529 -7.31640625 16.1328125 C-7.35830078 16.93847656 -7.40019531 17.74414062 -7.44335938 18.57421875 C-7.50233398 19.83685547 -7.50233398 19.83685547 -7.5625 21.125 C-7.60568359 21.97449219 -7.64886719 22.82398438 -7.69335938 23.69921875 C-7.79954236 25.79928223 -7.90028497 27.89961948 -8 30 C-10.97 30 -13.94 30 -17 30 C-17 20.43 -17 10.86 -17 1 C-5.75 -0.125 -5.75 -0.125 0 0 Z " fill="#C74D81" transform="translate(973,1411)"/>
<path d="M0 0 C3.3 0 6.6 0 10 0 C11.32 3.3 12.64 6.6 14 10 C14.598125 8.72125 15.19625 7.4425 15.8125 6.125 C17.31923802 2.90369802 17.9072219 2.06185207 21 0 C22.32 0 23.64 0 25 0 C26.32 3.3 27.64 6.6 29 10 C30.175625 7.8034375 30.175625 7.8034375 31.375 5.5625 C33.75 1.125 33.75 1.125 36 0 C37.99960012 -0.039992 40.00047242 -0.04346799 42 0 C43.25915948 3.77747843 42.52571949 5.00069129 41.1640625 8.69140625 C40.75929688 9.80064453 40.35453125 10.90988281 39.9375 12.05273438 C39.504375 13.21095703 39.07125 14.36917969 38.625 15.5625 C38.19960938 16.72458984 37.77421875 17.88667969 37.3359375 19.08398438 C34.21880151 27.56239698 34.21880151 27.56239698 33 30 C30.69 30 28.38 30 26 30 C24.68 27.03 23.36 24.06 22 21 C19.3534665 23.6465335 18.40058003 26.56221264 17 30 C14.69 30 12.38 30 10 30 C7.50903651 23.9044658 5.10862044 17.77281066 2.75 11.625 C2.47978027 10.93535156 2.20956055 10.24570313 1.93115234 9.53515625 C0.62428977 6.09949437 0 3.72947454 0 0 Z " fill="#C74D81" transform="translate(727,1411)"/>
<path d="M0 0 C0.33 6.93 0.66 13.86 1 21 C2.32 21 3.64 21 5 21 C5.33 19.68 5.66 18.36 6 17 C6.66 17 7.32 17 8 17 C8 11.39 8 5.78 8 0 C10.97 0 13.94 0 17 0 C17.07451364 4.3049777 17.12877223 8.60960734 17.16479492 12.91503906 C17.17982196 14.37767075 17.20024955 15.84025782 17.22631836 17.30273438 C17.26297267 19.4128728 17.27978676 21.52241226 17.29296875 23.6328125 C17.3086792 24.90012207 17.32438965 26.16743164 17.34057617 27.47314453 C16.8442534 32.61284255 15.22655039 35.83477713 11.5 39.375 C6.60025712 41.64988062 2.31494823 41.78470316 -3 41 C-6.125 39.4375 -6.125 39.4375 -8 37 C-8.9375 33.375 -8.9375 33.375 -9 30 C-8.34 29.34 -7.68 28.68 -7 28 C-6.484375 28.495 -5.96875 28.99 -5.4375 29.5 C-2.19319983 31.49649241 0.26217334 31.21564385 4 31 C3.39671875 30.91363281 2.7934375 30.82726563 2.171875 30.73828125 C1.37265625 30.59777344 0.5734375 30.45726562 -0.25 30.3125 C-1.43335938 30.12107422 -1.43335938 30.12107422 -2.640625 29.92578125 C-6.1035529 28.56698338 -7.16896624 27.26114139 -9 24 C-9.54963114 20.44455027 -9.51331837 16.96536673 -9.4375 13.375 C-9.44458984 12.42109375 -9.45167969 11.4671875 -9.45898438 10.484375 C-9.39611368 3.61696027 -9.39611368 3.61696027 -7.84790039 1.20556641 C-6 0 -6 0 0 0 Z " fill="#C74D81" transform="translate(620,1411)"/>
<path d="M0 0 C2.38533794 2.16171251 3.75144625 3.82984382 5 6.8125 C5 10.64556241 4.27140395 12.42728149 2.0625 15.5625 C-2.06025195 18.59146062 -6.00028423 19.16205154 -11 19.8125 C-5.42169984 19.93719099 -5.42169984 19.93719099 0 18.8125 C1.32 21.1225 2.64 23.4325 4 25.8125 C-0.77570613 30.05757211 -4.76947043 30.42648618 -11.0859375 30.19921875 C-15.39520442 29.62734553 -17.57755186 28.50676769 -21 25.8125 C-25.13151776 20.2193604 -24.7490767 14.50369077 -24 7.8125 C-22.26339347 3.9385316 -20.81803132 2.4110595 -17.4375 -0.0625 C-11.65834046 -1.9538613 -5.70494219 -2.25820628 0 0 Z M-11 7.8125 C-11.33 8.8025 -11.66 9.7925 -12 10.8125 C-9.39417629 11.74315133 -8.35801776 11.96167407 -5.75 10.875 C-5.1725 10.524375 -4.595 10.17375 -4 9.8125 C-4.33 9.1525 -4.66 8.4925 -5 7.8125 C-6.98 7.8125 -8.96 7.8125 -11 7.8125 Z " fill="#C74D81" transform="translate(918,1412.1875)"/>
<path d="M0 0 C0.33 3.63 0.66 7.26 1 11 C2.19625 10.773125 3.3925 10.54625 4.625 10.3125 C8.9006369 9.78183585 11.38917337 10.50681018 15 13 C17.05668554 16.16828963 17.23677979 18.68981876 17.1953125 22.421875 C17.18886719 23.44667969 17.18242188 24.47148438 17.17578125 25.52734375 C17.15902344 26.59082031 17.14226562 27.65429688 17.125 28.75 C17.11597656 29.82894531 17.10695313 30.90789062 17.09765625 32.01953125 C17.07411305 34.67991278 17.04122799 37.33984336 17 40 C14.03 40 11.06 40 8 40 C7.92652344 38.08574219 7.92652344 38.08574219 7.8515625 36.1328125 C7.77653809 34.46351928 7.70099012 32.79424954 7.625 31.125 C7.5940625 30.28324219 7.563125 29.44148438 7.53125 28.57421875 C7.49257812 27.76855469 7.45390625 26.96289062 7.4140625 26.1328125 C7.36693115 25.01737061 7.36693115 25.01737061 7.31884766 23.87939453 C7.14580449 21.75989026 7.14580449 21.75989026 5 20 C4.54625 20.495 4.0925 20.99 3.625 21.5 C2 23 2 23 0 23 C0 28.61 0 34.22 0 40 C-2.97 40 -5.94 40 -9 40 C-9.12371396 34.94637979 -9.21439046 29.89364298 -9.2746582 24.83886719 C-9.29978367 23.11996099 -9.33389047 21.40116144 -9.37719727 19.68261719 C-9.43794029 17.21001886 -9.46622762 14.73883394 -9.48828125 12.265625 C-9.51408768 11.49881409 -9.5398941 10.73200317 -9.56648254 9.94195557 C-9.56849439 6.10399586 -9.3359107 4.37068488 -6.71948242 1.48339844 C-4 0 -4 0 0 0 Z " fill="#C74D81" transform="translate(1034,1401)"/>
<path d="M0 0 C0.33 3.63 0.66 7.26 1 11 C2.19625 10.773125 3.3925 10.54625 4.625 10.3125 C8.9006369 9.78183585 11.38917337 10.50681018 15 13 C17.05668554 16.16828963 17.23677979 18.68981876 17.1953125 22.421875 C17.18886719 23.44667969 17.18242188 24.47148438 17.17578125 25.52734375 C17.15902344 26.59082031 17.14226563 27.65429688 17.125 28.75 C17.11597656 29.82894531 17.10695313 30.90789062 17.09765625 32.01953125 C17.07411305 34.67991278 17.04122799 37.33984336 17 40 C14.03 40 11.06 40 8 40 C7.92652344 38.08574219 7.92652344 38.08574219 7.8515625 36.1328125 C7.77653809 34.46351928 7.70099012 32.79424954 7.625 31.125 C7.5940625 30.28324219 7.563125 29.44148438 7.53125 28.57421875 C7.49257813 27.76855469 7.45390625 26.96289062 7.4140625 26.1328125 C7.36693115 25.01737061 7.36693115 25.01737061 7.31884766 23.87939453 C7.14580449 21.75989026 7.14580449 21.75989026 5 20 C4.54625 20.495 4.0925 20.99 3.625 21.5 C2 23 2 23 0 23 C0 28.61 0 34.22 0 40 C-2.97 40 -5.94 40 -9 40 C-9.12371396 34.94637979 -9.21439046 29.89364298 -9.2746582 24.83886719 C-9.29978367 23.11996099 -9.33389047 21.40116144 -9.37719727 19.68261719 C-9.43794029 17.21001886 -9.46622762 14.73883394 -9.48828125 12.265625 C-9.51408768 11.49881409 -9.5398941 10.73200317 -9.56648254 9.94195557 C-9.56849439 6.10399586 -9.3359107 4.37068488 -6.71948242 1.48339844 C-4 0 -4 0 0 0 Z " fill="#C74D81" transform="translate(875,1401)"/>
<path d="M0 0 C0.33 3.63 0.66 7.26 1 11 C2.19625 10.773125 3.3925 10.54625 4.625 10.3125 C8.9006369 9.78183585 11.38917337 10.50681018 15 13 C17.05668554 16.16828963 17.23677979 18.68981876 17.1953125 22.421875 C17.18886719 23.44667969 17.18242188 24.47148438 17.17578125 25.52734375 C17.15902344 26.59082031 17.14226563 27.65429688 17.125 28.75 C17.11597656 29.82894531 17.10695313 30.90789062 17.09765625 32.01953125 C17.07411305 34.67991278 17.04122799 37.33984336 17 40 C14.03 40 11.06 40 8 40 C7.92652344 38.08574219 7.92652344 38.08574219 7.8515625 36.1328125 C7.77653809 34.46351928 7.70099012 32.79424954 7.625 31.125 C7.5940625 30.28324219 7.563125 29.44148438 7.53125 28.57421875 C7.49257813 27.76855469 7.45390625 26.96289062 7.4140625 26.1328125 C7.36693115 25.01737061 7.36693115 25.01737061 7.31884766 23.87939453 C7.14580449 21.75989026 7.14580449 21.75989026 5 20 C4.54625 20.495 4.0925 20.99 3.625 21.5 C2 23 2 23 0 23 C0 28.61 0 34.22 0 40 C-2.97 40 -5.94 40 -9 40 C-9.12371396 34.94637979 -9.21439046 29.89364298 -9.2746582 24.83886719 C-9.29978367 23.11996099 -9.33389047 21.40116144 -9.37719727 19.68261719 C-9.43794029 17.21001886 -9.46622762 14.73883394 -9.48828125 12.265625 C-9.51408768 11.49881409 -9.5398941 10.73200317 -9.56648254 9.94195557 C-9.56849439 6.10399586 -9.3359107 4.37068488 -6.71948242 1.48339844 C-4 0 -4 0 0 0 Z " fill="#C74D81" transform="translate(814,1401)"/>
<path d="M0 0 C3.01125 -0.0825 6.0225 -0.165 9.125 -0.25 C10.06230957 -0.28641602 10.99961914 -0.32283203 11.96533203 -0.36035156 C17.63039899 -0.43516182 20.67553897 0.26963425 25 4 C26.30475618 6.60951236 26.11301572 8.52701285 26.09765625 11.4453125 C26.09443359 12.52167969 26.09121094 13.59804687 26.08789062 14.70703125 C26.07951172 15.83496094 26.07113281 16.96289062 26.0625 18.125 C26.05798828 19.26066406 26.05347656 20.39632813 26.04882812 21.56640625 C26.03701615 24.37765638 26.02054507 27.1888023 26 30 C23.03 30 20.06 30 17 30 C16.505 20.1 16.505 20.1 16 10 C12.0285831 10.62841973 12.0285831 10.62841973 10 13 C9.69324768 15.89967757 9.48826629 18.71783178 9.375 21.625 C9.31699219 22.82769531 9.31699219 22.82769531 9.2578125 24.0546875 C9.16346069 26.03607556 9.08063785 28.01800645 9 30 C6.03 30 3.06 30 0 30 C0 20.1 0 10.2 0 0 Z " fill="#C74D81" transform="translate(654,1411)"/>
<path d="M0 0 C2 1.0625 2 1.0625 3 3 C3.1875 6.6875 3.1875 6.6875 3 10 C2.360625 9.814375 1.72125 9.62875 1.0625 9.4375 C0.0415625 9.2209375 0.0415625 9.2209375 -1 9 C-1.33 9.33 -1.66 9.66 -2 10 C-0.35 10.33 1.3 10.66 3 11 C3.36521739 16.47826087 3.36521739 16.47826087 1.6875 18.875 C0 20 0 20 -3 20 C-3 26.6 -3 33.2 -3 40 C-5.97 40 -8.94 40 -12 40 C-12 33.4 -12 26.8 -12 20 C-12.99 20 -13.98 20 -15 20 C-15 17.03 -15 14.06 -15 11 C-14.01 11 -13.02 11 -12 11 C-12.0825 9.9275 -12.165 8.855 -12.25 7.75 C-12 4 -12 4 -10.5 1.5625 C-6.75107996 -0.78057502 -4.38964238 -0.48773804 0 0 Z " fill="#C74D81" transform="translate(607,1401)"/>
<path d="M0 0 C0 2.31 0 4.62 0 7 C1.98 7 3.96 7 6 7 C5.67 9.31 5.34 11.62 5 14 C3.35 14.33 1.7 14.66 0 15 C0 18.96 0 22.92 0 27 C1.65 26.67 3.3 26.34 5 26 C5.78260048 28.81736172 6.19511109 30.45969238 5.1875 33.25 C4 35 4 35 2 36 C-5.39968781 36.46982145 -5.39968781 36.46982145 -7.60498047 34.74389648 C-9.33962076 32.57544433 -9.35139606 31.51561504 -9.29296875 28.76953125 C-9.28330078 27.96708984 -9.27363281 27.16464844 -9.26367188 26.33789062 C-9.23853516 25.50451172 -9.21339844 24.67113281 -9.1875 23.8125 C-9.17396484 22.96751953 -9.16042969 22.12253906 -9.14648438 21.25195312 C-9.11115799 19.16769616 -9.05735139 17.08376723 -9 15 C-10.32 15 -11.64 15 -13 15 C-13 12.36 -13 9.72 -13 7 C-11.68 7 -10.36 7 -9 7 C-8.814375 5.5459375 -8.814375 5.5459375 -8.625 4.0625 C-8.41875 3.051875 -8.2125 2.04125 -8 1 C-5.29120665 -0.35439668 -2.99066732 -0.06501451 0 0 Z " fill="#C74D81" transform="translate(1017,1405)"/>
<path d="M0 0 C0 2.31 0 4.62 0 7 C1.98 7 3.96 7 6 7 C5.67 9.31 5.34 11.62 5 14 C3.35 14.33 1.7 14.66 0 15 C0 18.96 0 22.92 0 27 C1.65 26.67 3.3 26.34 5 26 C5.78260048 28.81736172 6.19511109 30.45969238 5.1875 33.25 C4 35 4 35 2 36 C-5.39968781 36.46982145 -5.39968781 36.46982145 -7.60498047 34.74389648 C-9.33962076 32.57544433 -9.35139606 31.51561504 -9.29296875 28.76953125 C-9.28330078 27.96708984 -9.27363281 27.16464844 -9.26367188 26.33789062 C-9.23853516 25.50451172 -9.21339844 24.67113281 -9.1875 23.8125 C-9.17396484 22.96751953 -9.16042969 22.12253906 -9.14648438 21.25195312 C-9.11115799 19.16769616 -9.05735139 17.08376723 -9 15 C-10.32 15 -11.64 15 -13 15 C-13 12.36 -13 9.72 -13 7 C-11.68 7 -10.36 7 -9 7 C-8.814375 5.5459375 -8.814375 5.5459375 -8.625 4.0625 C-8.41875 3.051875 -8.2125 2.04125 -8 1 C-5.29120665 -0.35439668 -2.99066732 -0.06501451 0 0 Z " fill="#C74D81" transform="translate(948,1405)"/>
<path d="M0 0 C0 2.31 0 4.62 0 7 C1.98 7 3.96 7 6 7 C5.67 9.31 5.34 11.62 5 14 C3.35 14.33 1.7 14.66 0 15 C0 18.96 0 22.92 0 27 C1.65 26.67 3.3 26.34 5 26 C5.78260048 28.81736172 6.19511109 30.45969238 5.1875 33.25 C4 35 4 35 2 36 C-5.39968781 36.46982145 -5.39968781 36.46982145 -7.60498047 34.74389648 C-9.33962076 32.57544433 -9.35139606 31.51561504 -9.29296875 28.76953125 C-9.28330078 27.96708984 -9.27363281 27.16464844 -9.26367188 26.33789062 C-9.23853516 25.50451172 -9.21339844 24.67113281 -9.1875 23.8125 C-9.17396484 22.96751953 -9.16042969 22.12253906 -9.14648438 21.25195312 C-9.11115799 19.16769616 -9.05735139 17.08376723 -9 15 C-10.32 15 -11.64 15 -13 15 C-13 12.36 -13 9.72 -13 7 C-11.68 7 -10.36 7 -9 7 C-8.814375 5.5459375 -8.814375 5.5459375 -8.625 4.0625 C-8.41875 3.051875 -8.2125 2.04125 -8 1 C-5.29120665 -0.35439668 -2.99066732 -0.06501451 0 0 Z " fill="#C74D81" transform="translate(858,1405)"/>
<path d="M0 0 C0 2.31 0 4.62 0 7 C1.98 7 3.96 7 6 7 C5.67 9.31 5.34 11.62 5 14 C3.35 14.33 1.7 14.66 0 15 C0 18.96 0 22.92 0 27 C1.65 26.67 3.3 26.34 5 26 C5.78260048 28.81736172 6.19511109 30.45969238 5.1875 33.25 C4 35 4 35 2 36 C-5.39968781 36.46982145 -5.39968781 36.46982145 -7.60498047 34.74389648 C-9.33962076 32.57544433 -9.35139606 31.51561504 -9.29296875 28.76953125 C-9.28330078 27.96708984 -9.27363281 27.16464844 -9.26367188 26.33789062 C-9.23853516 25.50451172 -9.21339844 24.67113281 -9.1875 23.8125 C-9.17396484 22.96751953 -9.16042969 22.12253906 -9.14648438 21.25195312 C-9.11115799 19.16769616 -9.05735139 17.08376723 -9 15 C-10.32 15 -11.64 15 -13 15 C-13 12.36 -13 9.72 -13 7 C-11.68 7 -10.36 7 -9 7 C-8.814375 5.5459375 -8.814375 5.5459375 -8.625 4.0625 C-8.41875 3.051875 -8.2125 2.04125 -8 1 C-5.29120665 -0.35439668 -2.99066732 -0.06501451 0 0 Z " fill="#C74D81" transform="translate(796,1405)"/>
<path d="M0 0 C0 9.9 0 19.8 0 30 C-2.97 30 -5.94 30 -9 30 C-9.08692074 25.72929442 -9.14036515 21.45881542 -9.1875 17.1875 C-9.21263672 15.97255859 -9.23777344 14.75761719 -9.26367188 13.50585938 C-9.27333984 12.34248047 -9.28300781 11.17910156 -9.29296875 9.98046875 C-9.3086792 8.90692139 -9.32438965 7.83337402 -9.34057617 6.72729492 C-9 4 -9 4 -7.66918945 2.1887207 C-5.09504079 0.35552927 -3.13813164 0 0 0 Z " fill="#C74D81" transform="translate(781,1411)"/>
<path d="M0 0 C0 9.9 0 19.8 0 30 C-2.97 30 -5.94 30 -9 30 C-9.08692074 25.72929442 -9.14036515 21.45881542 -9.1875 17.1875 C-9.21263672 15.97255859 -9.23777344 14.75761719 -9.26367188 13.50585938 C-9.27333984 12.34248047 -9.28300781 11.17910156 -9.29296875 9.98046875 C-9.3086792 8.90692139 -9.32438965 7.83337402 -9.34057617 6.72729492 C-9 4 -9 4 -7.66918945 2.1887207 C-5.09504079 0.35552927 -3.13813164 0 0 0 Z " fill="#C74D81" transform="translate(650,1411)"/>
<path d="M0 0 C0 9.9 0 19.8 0 30 C-2.97 30 -5.94 30 -9 30 C-9.08692074 25.72929442 -9.14036515 21.45881542 -9.1875 17.1875 C-9.21263672 15.97255859 -9.23777344 14.75761719 -9.26367188 13.50585938 C-9.27333984 12.34248047 -9.28300781 11.17910156 -9.29296875 9.98046875 C-9.3086792 8.90692139 -9.32438965 7.83337402 -9.34057617 6.72729492 C-9 4 -9 4 -7.66918945 2.1887207 C-5.09504079 0.35552927 -3.13813164 0 0 0 Z " fill="#C74D81" transform="translate(590,1411)"/>
<path d="M0 0 C3.5625 0.1875 3.5625 0.1875 5.5625 2.1875 C6.047783 6.39328601 5.80926816 8.70310324 3.875 12.5 C1.49667008 15.26400505 0.02878726 16.22464243 -3.4375 17.1875 C-3.39625 16.259375 -3.355 15.33125 -3.3125 14.375 C-3.16613661 11.02940281 -3.16613661 11.02940281 -5.4375 8.1875 C-4.75403543 0.25931102 -4.75403543 0.25931102 0 0 Z " fill="#C74D81" transform="translate(1070.4375,1401.8125)"/>
<path d="M0 0 C-0.04125 0.928125 -0.0825 1.85625 -0.125 2.8125 C-0.27136339 6.15809719 -0.27136339 6.15809719 2 9 C1.43396226 15.56603774 1.43396226 15.56603774 0 17 C-3.4375 17.1875 -3.4375 17.1875 -7 17 C-9 15 -9 15 -9.375 11.75 C-8.93710288 7.3710288 -7.75374958 5.38317805 -5 2 C-2 0 -2 0 0 0 Z " fill="#C74D81" transform="translate(503,1402)"/>
<path d="M0 0 C1.7325 0.1546875 1.7325 0.1546875 3.5 0.3125 C5.5 3.3125 5.5 3.3125 5.5 6.5625 C4.23459735 11.30775992 1.90470195 13.88697418 -1.5 17.3125 C-2.49 16.9825 -3.48 16.6525 -4.5 16.3125 C-4.479375 15.36375 -4.45875 14.415 -4.4375 13.4375 C-4.27448174 10.40583717 -4.27448174 10.40583717 -5.5 8.3125 C-5.6875 5.3125 -5.6875 5.3125 -5.5 2.3125 C-3.5 0.3125 -3.5 0.3125 0 0 Z " fill="#C74D81" transform="translate(1058.5,1401.6875)"/>
<path d="M0 0 C-0.04125 0.928125 -0.0825 1.85625 -0.125 2.8125 C-0.27136339 6.15809719 -0.27136339 6.15809719 2 9 C1.75 12.625 1.75 12.625 1 16 C-1.76250036 17.38125018 -3.94731099 17.19079306 -7 17 C-9 15 -9 15 -9.375 11.75 C-8.93710288 7.3710288 -7.75374958 5.38317805 -5 2 C-2 0 -2 0 0 0 Z " fill="#C74D81" transform="translate(516,1402)"/>
<path d="M0 0 C1.4540625 0.2165625 1.4540625 0.2165625 2.9375 0.4375 C4.9375 3.4375 4.9375 3.4375 4.84765625 5.453125 C3.58920651 8.1968695 2.03756903 8.837465 -0.625 10.1875 C-1.86443359 10.82945313 -1.86443359 10.82945313 -3.12890625 11.484375 C-3.76699219 11.79890625 -4.40507813 12.1134375 -5.0625 12.4375 C-6.46707737 9.62834526 -6.31145157 7.54939466 -6.0625 4.4375 C-4.46297292 1.0607206 -3.73834001 0.53404857 0 0 Z " fill="#C74D81" transform="translate(777.0625,1400.5625)"/>
<path d="M0 0 C1.4540625 0.2165625 1.4540625 0.2165625 2.9375 0.4375 C4.9375 3.4375 4.9375 3.4375 4.84765625 5.453125 C3.58920651 8.1968695 2.03756903 8.837465 -0.625 10.1875 C-1.86443359 10.82945313 -1.86443359 10.82945313 -3.12890625 11.484375 C-3.76699219 11.79890625 -4.40507813 12.1134375 -5.0625 12.4375 C-6.46707737 9.62834526 -6.31145157 7.54939466 -6.0625 4.4375 C-4.46297292 1.0607206 -3.73834001 0.53404857 0 0 Z " fill="#C74D81" transform="translate(646.0625,1400.5625)"/>
<path d="M0 0 C1.4540625 0.2165625 1.4540625 0.2165625 2.9375 0.4375 C4.9375 3.4375 4.9375 3.4375 4.84765625 5.453125 C3.58920651 8.1968695 2.03756903 8.837465 -0.625 10.1875 C-1.86443359 10.82945313 -1.86443359 10.82945313 -3.12890625 11.484375 C-3.76699219 11.79890625 -4.40507813 12.1134375 -5.0625 12.4375 C-6.46707737 9.62834526 -6.31145157 7.54939466 -6.0625 4.4375 C-4.46297292 1.0607206 -3.73834001 0.53404857 0 0 Z " fill="#C74D81" transform="translate(586.0625,1400.5625)"/>
</svg>
